Input #0, avi, from '01.avi':
  Metadata:
    encoder         : Lavf58.20.100
  Duration: 00:00:10.08, start: 0.000000, bitrate: 783 kb/s
    Stream #0:0: Video: mpeg4 (Simple Profile) (FMP4 / 0x34504D46), yuv420p, 640x480 [SAR 1:1 DAR 4:3], 702 kb/s, 25 fps, 25 tbr, 25 tbn, 25 tbc
    Stream #0:1: Audio: mp3 (U[0][0][0] / 0x0055), 44100 Hz, stereo, fltp, 64 kb/s
Demuxing video from file '01.avi' into '03.yuv'
Demuxing audio from file '01.avi' into '03.pcm'
Demuxing succeeded.
Play the output video file with the command:
ffplay -f rawvideo -pix_fmt yuv420p -video_size 640x480 03.yuv
Warning: the sample format the decoder produced is planar (fltp). This example will output the first channel only.
Play the output audio file with the command:
ffplay -f f32le -ac 1 -ar 44100 03.pcm
